REM DIRINDEX 1\6,1\2\7,1\2\8,1\2\9,1\3\10,1\3\11,1\4\12,1\4\13,1\4\14,1\5\15,1\5\16,1\5\17
REM DIRNAME folder01,folder02,folder03,folder04,folder05,folder06,folder07,folder08,folder09,folder10,folder11,folder12,folder13,folder14,folder15,folder16,folder17
TITLE ""
FILE "P2Q_t_0601-0618.mp3" MP3
  TRACK 01 AUDIO
    TITLE "10:cjc040_2854"
    INDEX 01 00:00:00
  TRACK 02 AUDIO
    TITLE "0:"
    INDEX 01 00:01:13
  TRACK 03 AUDIO
    TITLE "11:cjc040_2855"
    INDEX 01 00:01:71
  TRACK 04 AUDIO
    TITLE "0:"
    INDEX 01 00:04:36
  TRACK 05 AUDIO
    TITLE "10:cjc040_2856"
    INDEX 01 00:05:20
  TRACK 06 AUDIO
    TITLE "0:"
    INDEX 01 00:06:41
  TRACK 07 AUDIO
    TITLE "11:cjc040_2857"
    INDEX 01 00:07:23
  TRACK 08 AUDIO
    TITLE "0:"
    INDEX 01 00:10:25
  TRACK 09 AUDIO
    TITLE "10:cjc040_2858"
    INDEX 01 00:11:07
  TRACK 10 AUDIO
    TITLE "0:"
    INDEX 01 00:12:26
  TRACK 11 AUDIO
    TITLE "11:cjc040_2859"
    INDEX 01 00:13:06
  TRACK 12 AUDIO
    TITLE "0:"
    INDEX 01 00:15:01
  TRACK 13 AUDIO
    TITLE "10:cjc040_2860"
    INDEX 01 00:15:54
  TRACK 14 AUDIO
    TITLE "0:"
    INDEX 01 00:17:10
  TRACK 15 AUDIO
    TITLE "11:cjc040_2861"
    INDEX 01 00:17:72
  TRACK 16 AUDIO
    TITLE "0:"
    INDEX 01 00:20:26
  TRACK 17 AUDIO
    TITLE "10:cjc040_2862"
    INDEX 01 00:20:73
  TRACK 18 AUDIO
    TITLE "0:"
    INDEX 01 00:22:13
  TRACK 19 AUDIO
    TITLE "11:cjc040_2863"
    INDEX 01 00:22:68
  TRACK 20 AUDIO
    TITLE "0:"
    INDEX 01 00:25:64
  TRACK 21 AUDIO
    TITLE "10:cjc040_2864"
    INDEX 01 00:26:44
  TRACK 22 AUDIO
    TITLE "0:"
    INDEX 01 00:27:73
  TRACK 23 AUDIO
    TITLE "11:cjc040_2865"
    INDEX 01 00:28:47
  TRACK 24 AUDIO
    TITLE "0:"
    INDEX 01 00:29:40
  TRACK 25 AUDIO
    TITLE "10:cjc040_2866"
    INDEX 01 00:30:24
  TRACK 26 AUDIO
    TITLE "0:"
    INDEX 01 00:31:43
  TRACK 27 AUDIO
    TITLE "11:cjc040_2867"
    INDEX 01 00:32:21
  TRACK 28 AUDIO
    TITLE "0:"
    INDEX 01 00:33:46
  TRACK 29 AUDIO
    TITLE "10:cjc040_2868"
    INDEX 01 00:34:28
  TRACK 30 AUDIO
    TITLE "0:"
    INDEX 01 00:35:35
  TRACK 31 AUDIO
    TITLE "11:cjc040_2869"
    INDEX 01 00:36:11
  TRACK 32 AUDIO
    TITLE "0:"
    INDEX 01 00:38:26
  TRACK 33 AUDIO
    TITLE "10:cjc040_2870"
    INDEX 01 00:39:00
  TRACK 34 AUDIO
    TITLE "0:"
    INDEX 01 00:40:28
  TRACK 35 AUDIO
    TITLE "11:cjc040_2871"
    INDEX 01 00:41:16
  TRACK 36 AUDIO
    TITLE "0:"
    INDEX 01 00:42:37
  TRACK 37 AUDIO
    TITLE "10:cjc040_2872"
    INDEX 01 00:43:17
  TRACK 38 AUDIO
    TITLE "0:"
    INDEX 01 00:44:32
  TRACK 39 AUDIO
    TITLE "11:cjc040_2873"
    INDEX 01 00:45:06
  TRACK 40 AUDIO
    TITLE "0:"
    INDEX 01 00:47:44
  TRACK 41 AUDIO
    TITLE "10:cjc040_2874"
    INDEX 01 00:48:22
  TRACK 42 AUDIO
    TITLE "0:"
    INDEX 01 00:49:43
  TRACK 43 AUDIO
    TITLE "11:cjc040_2875"
    INDEX 01 00:50:17
  TRACK 44 AUDIO
    TITLE "0:"
    INDEX 01 00:51:22
  TRACK 45 AUDIO
    TITLE "10:cjc040_2876"
    INDEX 01 00:52:00
  TRACK 46 AUDIO
    TITLE "0:"
    INDEX 01 00:53:25
  TRACK 47 AUDIO
    TITLE "11:cjc040_2877"
    INDEX 01 00:54:11
  TRACK 48 AUDIO
    TITLE "0:"
    INDEX 01 00:56:61
  TRACK 49 AUDIO
    TITLE "10:cjc040_2878"
    INDEX 01 00:57:39
  TRACK 50 AUDIO
    TITLE "0:"
    INDEX 01 00:58:58
  TRACK 51 AUDIO
    TITLE "11:cjc040_2879"
    INDEX 01 00:59:39
  TRACK 52 AUDIO
    TITLE "0:"
    INDEX 01 01:01:46
  TRACK 53 AUDIO
    TITLE "10:cjc040_2880"
    INDEX 01 01:02:28
  TRACK 54 AUDIO
    TITLE "0:"
    INDEX 01 01:03:31
  TRACK 55 AUDIO
    TITLE "11:cjc040_2881"
    INDEX 01 01:04:13
  TRACK 56 AUDIO
    TITLE "0:"
    INDEX 01 01:06:49
  TRACK 57 AUDIO
    TITLE "10:cjc040_2882"
    INDEX 01 01:07:25
  TRACK 58 AUDIO
    TITLE "0:"
    INDEX 01 01:08:64
  TRACK 59 AUDIO
    TITLE "11:cjc040_2883"
    INDEX 01 01:09:44
  TRACK 60 AUDIO
    TITLE "0:"
    INDEX 01 01:11:58
  TRACK 61 AUDIO
    TITLE "10:cjc040_2884"
    INDEX 01 01:12:36
  TRACK 62 AUDIO
    TITLE "0:"
    INDEX 01 01:13:67
  TRACK 63 AUDIO
    TITLE "11:cjc040_2885"
    INDEX 01 01:14:49
  TRACK 64 AUDIO
    TITLE "0:"
    INDEX 01 01:17:22
  TRACK 65 AUDIO
    TITLE "10:cjc040_2886"
    INDEX 01 01:18:00
  TRACK 66 AUDIO
    TITLE "0:"
    INDEX 01 01:19:19
  TRACK 67 AUDIO
    TITLE "11:cjc040_2887"
    INDEX 01 01:20:04
  TRACK 68 AUDIO
    TITLE "0:"
    INDEX 01 01:21:10
  TRACK 69 AUDIO
    TITLE "10:cjc040_2888"
    INDEX 01 01:21:67
  TRACK 70 AUDIO
    TITLE "0:"
    INDEX 01 01:23:01
  TRACK 71 AUDIO
    TITLE "11:cjc040_2889"
    INDEX 01 01:23:56
  TRACK 72 AUDIO
    TITLE "0:"
    INDEX 01 01:24:67
